<svg width="66" height="22" viewBox="0 0 66 22" fill="none" xmlns="http://www.w3.org/2000/svg">
<g clip-path="url(#clip0_140_39)">
<path d="M60.7442 -5.81997e-05H5.2588C5.05654 -5.81997e-05 4.85672 -5.81997e-05 4.655 0.0010418C4.48615 0.0021418 4.31864 0.0053373 4.14816 0.0080268C3.77781 0.0123728 3.40832 0.0448638 3.04292 0.105217C2.67804 0.166885 2.32458 0.283145 1.9945 0.450067C1.66484 0.618401 1.36361 0.837134 1.10175 1.09833C0.838514 1.35879 0.619088 1.65985 0.451908 1.98993C0.284266 2.31935 0.168023 2.67236 0.107193 3.03676C0.0457842 3.40069 0.0127398 3.76883 0.00835589 4.13786C0.00323756 4.30649 0.00269705 4.47568 0 4.64433V17.3572C0.00269705 17.5279 0.00323756 17.6934 0.00835589 17.8642C0.0127411 18.2332 0.0457855 18.6013 0.107193 18.9653C0.167855 19.3299 0.284105 19.6831 0.451908 20.0126C0.619012 20.3416 0.838469 20.6415 1.10175 20.9005C1.36261 21.1629 1.66404 21.3817 1.9945 21.5488C2.32457 21.7161 2.67799 21.8331 3.04292 21.8957C3.40839 21.9556 3.77783 21.9881 4.14816 21.993C4.31864 21.9967 4.48615 21.9988 4.655 21.9988C4.85671 21.9999 5.05656 21.9999 5.2588 21.9999H60.7442C60.9424 21.9999 61.1438 21.9999 61.342 21.9988C61.5101 21.9988 61.6825 21.9967 61.8505 21.993C62.2201 21.9884 62.5889 21.9558 62.9536 21.8957C63.3197 21.8327 63.6744 21.7157 64.0061 21.5488C64.3362 21.3816 64.6374 21.1628 64.898 20.9005C65.1606 20.6405 65.3805 20.3408 65.5497 20.0126C65.7163 19.6828 65.8314 19.3297 65.8912 18.9653C65.9527 18.6013 65.9869 18.2333 65.9935 17.8642C65.9957 17.6934 65.9957 17.5279 65.9957 17.3572C66 17.1574 66 16.9586 66 16.7556V5.24481C66 5.0434 66 4.84359 65.9957 4.64433C65.9957 4.47568 65.9957 4.30649 65.9935 4.13783C65.9869 3.76877 65.9527 3.40072 65.8912 3.03673C65.8312 2.67255 65.7161 2.31957 65.5497 1.98991C65.2093 1.3283 64.6694 0.789756 64.0061 0.450018C63.6744 0.283504 63.3197 0.167274 62.9536 0.105168C62.589 0.0445483 62.2202 0.0120461 61.8505 0.0079498C61.6825 0.0052658 61.5101 0.0020428 61.342 0.000970301C61.1438 -0.0001297 60.9424 -0.0001297 60.7442 -0.0001297V-5.81997e-05Z" fill="#A6A6A6"/>
<path d="M4.6577 21.5188C4.48965 21.5188 4.32567 21.5166 4.15894 21.5129C3.81356 21.5084 3.46898 21.4784 3.12803 21.4232C2.81011 21.3686 2.50214 21.267 2.21426 21.1218C1.92903 20.9778 1.66887 20.7891 1.44376 20.5627C1.21539 20.339 1.02526 20.0795 0.880901 19.7946C0.734957 19.5078 0.633955 19.2004 0.581413 18.8832C0.524673 18.5422 0.493974 18.1975 0.489581 17.8519C0.486084 17.7359 0.481506 17.3497 0.481506 17.3497V4.64439C0.481506 4.64439 0.486382 4.26412 0.489609 4.15239C0.493815 3.80737 0.524335 3.46316 0.580906 3.12276C0.633544 2.80459 0.734625 2.49632 0.880648 2.2086C1.02447 1.92387 1.21355 1.66423 1.44054 1.43973C1.66728 1.2131 1.92827 1.02334 2.21399 0.87737C2.50121 0.732656 2.8086 0.631807 3.12587 0.578203C3.46794 0.522414 3.81372 0.492252 4.1603 0.48797L4.65797 0.481255H61.3393L61.843 0.48824C62.1864 0.492309 62.529 0.522202 62.868 0.577664C63.1884 0.631941 63.499 0.733493 63.7895 0.878982C64.3619 1.17315 64.8277 1.63854 65.1215 2.20994C65.2652 2.49567 65.3647 2.80143 65.4167 3.11685C65.4739 3.46005 65.506 3.80696 65.5126 4.15481C65.5142 4.31057 65.5142 4.47788 65.5142 4.64439C65.5185 4.85064 65.5185 5.04695 65.5185 5.24488V16.7556C65.5185 16.9555 65.5185 17.1504 65.5142 17.347C65.5142 17.5259 65.5141 17.6897 65.512 17.8583C65.5056 18.2 65.4741 18.5407 65.4177 18.8778C65.3663 19.1973 65.2658 19.5071 65.1199 19.7963C64.9745 20.0781 64.7855 20.3353 64.5598 20.5584C64.3344 20.786 64.0738 20.9759 63.7879 21.1208C63.4982 21.2671 63.1881 21.369 62.868 21.4232C62.527 21.4787 62.1824 21.5087 61.837 21.5129C61.6755 21.5166 61.5063 21.5188 61.3421 21.5188L60.7442 21.5199L4.6577 21.5188Z" fill="black"/>
<path d="M13.6611 11.1654C13.6671 10.7063 13.7893 10.2562 14.0166 9.85691C14.2438 9.45763 14.5687 9.12217 14.9609 8.88172C14.7117 8.52688 14.383 8.23487 14.0009 8.02886C13.6188 7.82286 13.1937 7.70854 12.7596 7.695C11.8334 7.59806 10.9355 8.24766 10.4635 8.24766C9.98245 8.24766 9.25579 7.70462 8.4733 7.72068C7.96716 7.73698 7.47389 7.88375 7.04155 8.14669C6.60921 8.40962 6.25254 8.77975 6.00629 9.22101C4.9396 11.0626 5.73526 13.7692 6.75705 15.2579C7.26828 15.9868 7.86575 16.801 8.64754 16.7722C9.41256 16.7405 9.69829 16.2857 10.6217 16.2857C11.5366 16.2857 11.8047 16.7722 12.6023 16.7538C13.4232 16.7405 13.9404 16.0216 14.4337 15.2858C14.8011 14.7664 15.0837 14.1923 15.2712 13.5849C14.7943 13.3837 14.3873 13.0471 14.101 12.6168C13.8147 12.1865 13.6617 11.6817 13.6611 11.1654Z" fill="white"/>
<path d="M12.1545 6.71597C12.6021 6.18015 12.8226 5.49146 12.7692 4.79613C12.0854 4.86775 11.4537 5.19366 11.0001 5.70891C10.7783 5.96063 10.6084 6.25347 10.5002 6.57069C10.3919 6.88792 10.3475 7.2233 10.3693 7.55768C10.7113 7.56119 11.0497 7.48726 11.3589 7.34146C11.6682 7.19567 11.9402 6.9818 12.1545 6.71597Z" fill="white"/>
<path d="M23.3316 14.9268H20.7209L20.0939 16.7728H18.9882L21.461 9.94294H22.6098L25.0826 16.7728H23.958L23.3316 14.9268ZM20.9913 14.0749H23.0607L22.0405 11.0789H22.012L20.9913 14.0749Z" fill="white"/>
<path d="M30.423 14.2833C30.423 15.8307 29.5925 16.8249 28.3391 16.8249C28.0216 16.8415 27.7058 16.7686 27.428 16.6145C27.1501 16.4604 26.9214 16.2314 26.7679 15.9537H26.7442V18.4201H25.7192V11.7933H26.7114V12.6215H26.7302C26.8907 12.3452 27.1233 12.1173 27.4033 11.9623C27.6833 11.8073 28.0002 11.7309 28.3202 11.7412C29.5876 11.7412 30.423 12.7402 30.423 14.2833ZM29.3695 14.2833C29.3695 13.2752 28.847 12.6124 28.0498 12.6124C27.2667 12.6124 26.7399 13.2891 26.7399 14.2833C26.7399 15.2866 27.2667 15.9586 28.0498 15.9586C28.847 15.9586 29.3695 15.3006 29.3695 14.2833Z" fill="white"/>
<path d="M35.919 14.2833C35.919 15.8307 35.0885 16.8249 33.8351 16.8249C33.5176 16.8415 33.2019 16.7686 32.924 16.6145C32.6461 16.4604 32.4174 16.2314 32.264 15.9537H32.2403V18.4201H31.2153V11.7933H32.2074V12.6215H32.2263C32.3867 12.3452 32.6193 12.1174 32.8993 11.9623C33.1793 11.8073 33.4962 11.7309 33.8163 11.7412C35.0836 11.7412 35.919 12.7402 35.919 14.2833ZM34.8655 14.2833C34.8655 13.2752 34.343 12.6124 33.5459 12.6124C32.7627 12.6124 32.236 13.2891 32.236 14.2833C32.236 15.2867 32.7627 15.9586 33.5459 15.9586C34.343 15.9586 34.8655 15.3006 34.8655 14.2833H34.8655Z" fill="white"/>
<path d="M39.5515 14.8699C39.6274 15.5472 40.2873 15.9919 41.1889 15.9919C42.0528 15.9919 42.6744 15.5471 42.6744 14.9364C42.6744 14.4063 42.2995 14.0889 41.4119 13.8713L40.5242 13.6581C39.2666 13.3552 38.6827 12.7687 38.6827 11.8169C38.6827 10.6385 39.7126 9.82906 41.1749 9.82906C42.6221 9.82906 43.6143 10.6385 43.6477 11.8169H42.613C42.5511 11.1353 41.986 10.7239 41.1603 10.7239C40.3346 10.7239 39.7696 11.1401 39.7696 11.746C39.7696 12.2289 40.1305 12.513 41.0133 12.7305L41.7679 12.9153C43.1731 13.2467 43.757 13.8096 43.757 14.8086C43.757 16.0864 42.7363 16.8867 41.1129 16.8867C39.594 16.8867 38.5685 16.1052 38.5023 14.8698L39.5515 14.8699Z" fill="white"/>
<path d="M45.9691 10.6149V11.7933H46.9187V12.6027H45.9691V15.3479C45.9691 15.7743 46.1592 15.9731 46.5766 15.9731C46.6894 15.9711 46.8019 15.9632 46.9138 15.9494V16.754C46.7261 16.789 46.5354 16.8048 46.3445 16.8013C45.3335 16.8013 44.9392 16.4226 44.9392 15.4569V12.6027H44.2132V11.7933H44.9392V10.6149H45.9691Z" fill="white"/>
<path d="M47.4686 14.2833C47.4686 12.7166 48.394 11.7321 49.8369 11.7321C51.2847 11.7321 52.2058 12.7166 52.2058 14.2833C52.2058 15.8544 51.2896 16.8346 49.8369 16.8346C48.3848 16.8346 47.4686 15.8544 47.4686 14.2833ZM51.1614 14.2833C51.1614 13.2086 50.6675 12.5743 49.8369 12.5743C49.0064 12.5743 48.513 13.2134 48.513 14.2833C48.513 15.3624 49.0064 15.9919 49.8369 15.9919C50.6675 15.9919 51.1614 15.3624 51.1614 14.2833H51.1614Z" fill="white"/>
<path d="M53.0508 11.7933H54.0284V12.6408H54.0521C54.1183 12.3761 54.2738 12.1422 54.4925 11.9784C54.7113 11.8145 54.9799 11.7308 55.2533 11.7412C55.3714 11.7408 55.4892 11.7536 55.6044 11.7793V12.7354C55.4553 12.6899 55.2998 12.6691 55.1439 12.6736C54.995 12.6676 54.8466 12.6938 54.7088 12.7504C54.571 12.8069 54.4471 12.8926 54.3456 13.0014C54.2441 13.1103 54.1675 13.2397 54.1209 13.3809C54.0743 13.5221 54.059 13.6716 54.0758 13.8193V16.7728H53.0508L53.0508 11.7933Z" fill="white"/>
<path d="M60.3303 15.3103C60.1924 16.2142 59.3096 16.8346 58.1801 16.8346C56.7274 16.8346 55.8258 15.864 55.8258 14.307C55.8258 12.7451 56.7323 11.7321 58.137 11.7321C59.5186 11.7321 60.3874 12.6784 60.3874 14.1883V14.5385H56.8605V14.6002C56.8442 14.7835 56.8672 14.9681 56.928 15.1418C56.9888 15.3155 57.0859 15.4744 57.2129 15.6078C57.34 15.7412 57.4941 15.8461 57.6649 15.9155C57.8357 15.985 58.0194 16.0174 58.2038 16.0107C58.446 16.0333 58.6891 15.9774 58.8969 15.8512C59.1046 15.725 59.266 15.5353 59.357 15.3103L60.3303 15.3103ZM56.8653 13.8241H59.3618C59.371 13.6593 59.346 13.4944 59.2882 13.3398C59.2305 13.1851 59.1413 13.044 59.0263 12.9253C58.9113 12.8067 58.7729 12.713 58.6199 12.6502C58.4669 12.5873 58.3025 12.5567 58.137 12.5603C57.9701 12.5593 57.8046 12.5913 57.6502 12.6544C57.4957 12.7175 57.3553 12.8105 57.2371 12.928C57.1189 13.0455 57.0252 13.1852 56.9613 13.339C56.8975 13.4928 56.8649 13.6577 56.8653 13.8241V13.8241Z" fill="white"/>
<path d="M20.8628 4.80206C21.0777 4.78668 21.2933 4.81905 21.4941 4.89684C21.695 4.97463 21.876 5.09589 22.0241 5.25189C22.1723 5.40788 22.2838 5.59471 22.3508 5.79891C22.4177 6.00311 22.4384 6.21959 22.4113 6.43272C22.4113 7.48116 21.8431 8.08382 20.8628 8.08382H19.6741V4.80206H20.8628ZM20.1852 7.61971H20.8057C20.9593 7.62886 21.1129 7.60375 21.2555 7.54622C21.3981 7.48868 21.5261 7.40016 21.63 7.2871C21.734 7.17403 21.8113 7.03928 21.8565 6.89264C21.9016 6.746 21.9134 6.59116 21.891 6.43941C21.9118 6.28825 21.8988 6.13437 21.853 5.98881C21.8071 5.84324 21.7296 5.70959 21.6258 5.59743C21.5221 5.48527 21.3948 5.39737 21.253 5.34004C21.1112 5.28271 20.9585 5.25737 20.8057 5.26582H20.1852V7.61971Z" fill="white"/>
<path d="M22.9887 6.84436C22.9731 6.68161 22.9918 6.5174 23.0435 6.36226C23.0953 6.20712 23.179 6.06448 23.2892 5.94349C23.3995 5.8225 23.5339 5.72583 23.6839 5.65968C23.8338 5.59353 23.996 5.55936 24.1599 5.55936C24.3239 5.55936 24.486 5.59353 24.636 5.65968C24.7859 5.72583 24.9203 5.8225 25.0306 5.94349C25.1409 6.06448 25.2246 6.20712 25.2763 6.36226C25.3281 6.5174 25.3468 6.68161 25.3311 6.84436C25.347 7.00729 25.3286 7.17173 25.277 7.32711C25.2254 7.4825 25.1417 7.6254 25.0314 7.74663C24.9211 7.86786 24.7866 7.96473 24.6365 8.03103C24.4864 8.09732 24.3241 8.13157 24.1599 8.13157C23.9958 8.13157 23.8334 8.09732 23.6833 8.03103C23.5333 7.96473 23.3987 7.86786 23.2884 7.74663C23.1781 7.6254 23.0945 7.4825 23.0429 7.32711C22.9912 7.17173 22.9728 7.00729 22.9887 6.84436ZM24.827 6.84436C24.827 6.30753 24.5851 5.99359 24.1607 5.99359C23.7347 5.99359 23.495 6.30753 23.495 6.84437C23.495 7.38551 23.7347 7.69703 24.1607 7.69703C24.5852 7.69702 24.827 7.38335 24.827 6.84436H24.827Z" fill="white"/>
<path d="M28.4449 8.08377H27.9365L27.4232 6.25974H27.3844L26.8733 8.08377H26.3696L25.6851 5.60715H26.1822L26.6271 7.49696H26.6637L27.1743 5.60715H27.6446L28.1552 7.49696H28.1939L28.6367 5.60715H29.1268L28.4449 8.08377Z" fill="white"/>
<path d="M29.7026 5.60714H30.1744V6.00058H30.211C30.2732 5.85927 30.378 5.74081 30.5108 5.66172C30.6437 5.58263 30.798 5.54684 30.9522 5.55934C31.073 5.55028 31.1944 5.56845 31.3072 5.6125C31.42 5.65655 31.5215 5.72536 31.6041 5.81382C31.6866 5.90229 31.7482 6.00814 31.7841 6.12354C31.8201 6.23894 31.8295 6.36094 31.8118 6.48048V8.08373H31.3217V6.60322C31.3217 6.20522 31.1482 6.00729 30.7857 6.00729C30.7037 6.00348 30.6218 6.01741 30.5456 6.04811C30.4695 6.07882 30.4009 6.12558 30.3446 6.18519C30.2883 6.2448 30.2455 6.31586 30.2193 6.39348C30.1931 6.4711 30.184 6.55346 30.1927 6.6349V8.08376H29.7026L29.7026 5.60714Z" fill="white"/>
<path d="M32.5928 4.64035H33.083V8.08376H32.5928V4.64035Z" fill="white"/>
<path d="M33.7643 6.84439C33.7487 6.68162 33.7674 6.5174 33.8192 6.36226C33.8709 6.20711 33.9546 6.06447 34.0649 5.94348C34.1752 5.82248 34.3097 5.72581 34.4596 5.65966C34.6096 5.59351 34.7717 5.55933 34.9357 5.55933C35.0996 5.55933 35.2618 5.59351 35.4117 5.65966C35.5617 5.72581 35.6961 5.82248 35.8064 5.94348C35.9167 6.06447 36.0004 6.20711 36.0522 6.36226C36.104 6.5174 36.1226 6.68162 36.107 6.84439C36.1229 7.00732 36.1045 7.17176 36.0528 7.32715C36.0012 7.48253 35.9175 7.62543 35.8072 7.74665C35.6969 7.86788 35.5624 7.96475 35.4123 8.03104C35.2622 8.09733 35.0998 8.13158 34.9357 8.13158C34.7715 8.13158 34.6092 8.09733 34.4591 8.03104C34.309 7.96475 34.1745 7.86788 34.0641 7.74665C33.9538 7.62543 33.8702 7.48253 33.8185 7.32715C33.7669 7.17176 33.7484 7.00732 33.7643 6.84439ZM35.6026 6.84439C35.6026 6.30755 35.3608 5.99361 34.9363 5.99361C34.5103 5.99361 34.2706 6.30755 34.2706 6.84439C34.2706 7.38553 34.5103 7.69705 34.9363 7.69705C35.3608 7.69705 35.6026 7.38338 35.6026 6.84439H35.6026Z" fill="white"/>
<path d="M36.623 7.38337C36.623 6.93757 36.9559 6.68056 37.5467 6.64404L38.2194 6.60537V6.3916C38.2194 6.13002 38.046 5.98232 37.711 5.98232C37.4374 5.98232 37.2478 6.08249 37.1934 6.25759H36.7189C36.769 5.8322 37.1702 5.55935 37.7336 5.55935C38.3563 5.55935 38.7074 5.86845 38.7074 6.3916V8.08376H38.2356V7.73571H38.1968C38.1181 7.86056 38.0076 7.96234 37.8765 8.03065C37.7455 8.09897 37.5986 8.13138 37.4508 8.12456C37.3466 8.13538 37.2412 8.12429 37.1415 8.092C37.0418 8.05972 36.95 8.00696 36.872 7.93713C36.794 7.86729 36.7316 7.78194 36.6887 7.68656C36.6458 7.59118 36.6234 7.4879 36.623 7.38337ZM38.2194 7.17174V6.96469L37.613 7.00336C37.2709 7.02619 37.1158 7.1422 37.1158 7.36054C37.1158 7.58344 37.3097 7.71315 37.5764 7.71315C37.6545 7.72103 37.7334 7.71317 37.8084 7.69002C37.8834 7.66687 37.953 7.62891 38.013 7.5784C38.073 7.52788 38.1222 7.46585 38.1577 7.39599C38.1931 7.32613 38.2141 7.24987 38.2194 7.17174Z" fill="white"/>
<path d="M39.3516 6.84439C39.3516 6.06182 39.7551 5.56607 40.3825 5.56607C40.5378 5.55893 40.6918 5.59601 40.8267 5.67295C40.9615 5.74989 41.0716 5.86352 41.1441 6.00057H41.1808V4.64035H41.6709V8.08376H41.2012V7.69247H41.1625C41.0844 7.82859 40.9704 7.94081 40.8329 8.01697C40.6955 8.09314 40.5397 8.13035 40.3825 8.12457C39.7507 8.1246 39.3516 7.62883 39.3516 6.84439ZM39.8579 6.84439C39.8579 7.36968 40.1062 7.68577 40.5215 7.68577C40.9346 7.68577 41.1899 7.36512 41.1899 6.84654C41.1899 6.33037 40.9319 6.00515 40.5215 6.00515C40.1089 6.00515 39.8579 6.32339 39.8579 6.84439H39.8579Z" fill="white"/>
<path d="M43.6988 6.84436C43.6832 6.68161 43.7019 6.5174 43.7537 6.36226C43.8054 6.20712 43.8891 6.06448 43.9994 5.94349C44.1097 5.8225 44.2441 5.72583 44.394 5.65968C44.544 5.59353 44.7061 5.55936 44.8701 5.55936C45.034 5.55936 45.1962 5.59353 45.3461 5.65968C45.496 5.72583 45.6305 5.8225 45.7407 5.94349C45.851 6.06448 45.9347 6.20712 45.9865 6.36226C46.0382 6.5174 46.0569 6.68161 46.0413 6.84436C46.0572 7.00729 46.0387 7.17173 45.9871 7.32711C45.9355 7.4825 45.8519 7.6254 45.7415 7.74663C45.6312 7.86786 45.4967 7.96473 45.3466 8.03103C45.1965 8.09732 45.0342 8.13157 44.8701 8.13157C44.7059 8.13157 44.5436 8.09732 44.3935 8.03103C44.2434 7.96473 44.1089 7.86786 43.9986 7.74663C43.8883 7.6254 43.8046 7.4825 43.753 7.32711C43.7014 7.17173 43.6829 7.00729 43.6988 6.84436ZM45.5371 6.84436C45.5371 6.30753 45.2953 5.99359 44.8709 5.99359C44.4448 5.99359 44.2052 6.30753 44.2052 6.84437C44.2052 7.38551 44.4448 7.69703 44.8709 7.69703C45.2953 7.69702 45.5371 7.38335 45.5371 6.84436Z" fill="white"/>
<path d="M46.6989 5.60714H47.1707V6.00058H47.2074C47.2695 5.85927 47.3743 5.74081 47.5072 5.66172C47.64 5.58263 47.7943 5.54684 47.9485 5.55934C48.0694 5.55028 48.1907 5.56845 48.3035 5.6125C48.4164 5.65655 48.5178 5.72536 48.6004 5.81382C48.683 5.90229 48.7445 6.00814 48.7805 6.12354C48.8164 6.23894 48.8259 6.36094 48.8081 6.48048V8.08373H48.318V6.60322C48.318 6.20522 48.1446 6.00729 47.7821 6.00729C47.7 6.00348 47.6181 6.01741 47.542 6.04811C47.4658 6.07882 47.3973 6.12558 47.3409 6.18519C47.2846 6.2448 47.2419 6.31586 47.2157 6.39348C47.1894 6.4711 47.1804 6.55346 47.1891 6.6349V8.08376H46.6989V5.60714Z" fill="white"/>
<path d="M51.5777 4.99055V5.61843H52.1158V6.03012H51.5777V7.30361C51.5777 7.56303 51.6849 7.67663 51.9289 7.67663C51.9913 7.67643 52.0537 7.67267 52.1158 7.66535V8.07248C52.0278 8.08818 51.9386 8.09653 51.8492 8.09745C51.3041 8.09745 51.087 7.90624 51.087 7.42875V6.0301H50.6927V5.6184H51.087V4.99055H51.5777Z" fill="white"/>
<path d="M52.7853 4.64035H53.2711V6.00515H53.3099C53.375 5.86252 53.4827 5.7434 53.6182 5.66401C53.7537 5.58461 53.9105 5.54882 54.0672 5.5615C54.1874 5.55497 54.3076 5.57499 54.4191 5.62011C54.5307 5.66523 54.6309 5.73435 54.7126 5.82254C54.7943 5.91072 54.8555 6.0158 54.8917 6.13028C54.928 6.24475 54.9385 6.3658 54.9225 6.48479V8.08376H54.4319V6.60536C54.4319 6.20978 54.2471 6.00944 53.9008 6.00944C53.8165 6.00255 53.7318 6.0141 53.6525 6.04328C53.5732 6.07246 53.5013 6.11856 53.4417 6.17837C53.3821 6.23817 53.3364 6.31023 53.3077 6.38951C53.279 6.46879 53.268 6.55336 53.2754 6.63732V8.08375H52.7853L52.7853 4.64035Z" fill="white"/>
<path d="M57.7805 7.41507C57.7139 7.64142 57.5696 7.83721 57.3728 7.96819C57.1761 8.09917 56.9395 8.15701 56.7043 8.13157C56.5407 8.13588 56.3781 8.10463 56.2278 8.03999C56.0775 7.97535 55.9431 7.87887 55.8339 7.75724C55.7248 7.63561 55.6435 7.49176 55.5957 7.33566C55.5478 7.17955 55.5347 7.01495 55.557 6.85326C55.5353 6.69107 55.5487 6.52611 55.5964 6.36954C55.6441 6.21297 55.7249 6.06845 55.8335 5.94576C55.9421 5.82306 56.0759 5.72507 56.2257 5.65841C56.3756 5.59174 56.538 5.55796 56.7021 5.55936C57.3932 5.55936 57.8101 6.03016 57.8101 6.80786V6.97841H56.0563V7.0058C56.0487 7.09668 56.0601 7.18817 56.09 7.27438C56.1198 7.36059 56.1674 7.43963 56.2297 7.50643C56.292 7.57323 56.3675 7.62632 56.4516 7.66229C56.5356 7.69826 56.6263 7.71631 56.7178 7.7153C56.835 7.72934 56.9538 7.70828 57.059 7.65482C57.1642 7.60136 57.2511 7.5179 57.3086 7.41505L57.7805 7.41507ZM56.0563 6.61693H57.3108C57.3169 6.53381 57.3056 6.45032 57.2775 6.37182C57.2494 6.29333 57.2051 6.22156 57.1476 6.16114C57.09 6.10072 57.0204 6.05298 56.9432 6.02098C56.866 5.98898 56.783 5.97344 56.6994 5.97535C56.6147 5.97429 56.5305 5.99016 56.452 6.02203C56.3735 6.0539 56.3022 6.10112 56.2422 6.16092C56.1823 6.22071 56.135 6.29186 56.103 6.37018C56.0711 6.4485 56.0552 6.53239 56.0563 6.61693H56.0563Z" fill="white"/>
</g>
<defs>
<clipPath id="clip0_140_39">
<rect width="66" height="22" fill="white"/>
</clipPath>
</defs>
</svg>
