<svg width="12" height="12" viewBox="0 0 12 12" fill="none" xmlns="http://www.w3.org/2000/svg">
<g clip-path="url(#clip0_140_140)">
<path d="M6.1181 12.0004C6.07837 12.0004 6.03864 12.0004 5.99863 12.0002C5.05801 12.0025 4.1889 11.9786 3.34369 11.9271C2.56879 11.88 1.86145 11.6122 1.29803 11.1528C0.754395 10.7095 0.383148 10.1101 0.194641 9.37143C0.0305786 8.72836 0.0218811 8.09711 0.0135498 7.48654C0.00750731 7.04846 0.00128174 6.52936 0 6.00146C0.00128174 5.47137 0.00750731 4.95227 0.0135498 4.51419C0.0218811 3.90371 0.0305786 3.27246 0.194641 2.6293C0.383148 1.89065 0.754395 1.29126 1.29803 0.847958C1.86145 0.388547 2.56879 0.120755 3.34378 0.0736053C4.189 0.0222442 5.05829 -0.00174265 6.00092 0.000546169C6.9418 -0.00146799 7.81064 0.0222442 8.65585 0.0736053C9.43076 0.120755 10.1381 0.388547 10.7015 0.847958C11.2452 1.29126 11.6164 1.89065 11.8049 2.6293C11.969 3.27237 11.9777 3.90371 11.986 4.51419C11.992 4.95227 11.9984 5.47137 11.9995 5.99927V6.00146C11.9984 6.52936 11.992 7.04846 11.986 7.48654C11.9777 8.09701 11.9691 8.72827 11.8049 9.37143C11.6164 10.1101 11.2452 10.7095 10.7015 11.1528C10.1381 11.6122 9.43076 11.88 8.65585 11.9271C7.84644 11.9764 7.01495 12.0004 6.1181 12.0004ZM5.99863 11.0627C6.92395 11.0649 7.77356 11.0415 8.59891 10.9914C9.18484 10.9557 9.69287 10.7656 10.1091 10.4262C10.4938 10.1125 10.7587 9.67959 10.8965 9.13962C11.0331 8.60431 11.041 8.02954 11.0486 7.47372C11.0545 7.03857 11.0608 6.52313 11.062 6.00036C11.0608 5.47751 11.0545 4.96216 11.0486 4.52701C11.041 3.97119 11.0331 3.39642 10.8965 2.86102C10.7587 2.32104 10.4938 1.88818 10.1091 1.57443C9.69287 1.23514 9.18484 1.04498 8.59891 1.00937C7.77356 0.959103 6.92395 0.935941 6.00082 0.937955C5.07568 0.935757 4.22598 0.959103 3.40063 1.00937C2.8147 1.04498 2.30667 1.23514 1.89047 1.57443C1.50577 1.88818 1.24081 2.32104 1.10303 2.86102C0.966431 3.39642 0.958557 3.9711 0.950958 4.52701C0.945007 4.96252 0.938782 5.47824 0.9375 6.00146C0.938782 6.5224 0.945007 7.03821 0.950958 7.47372C0.958557 8.02954 0.966431 8.60431 1.10303 9.13962C1.24081 9.67959 1.50577 10.1125 1.89047 10.4262C2.30667 10.7655 2.8147 10.9557 3.40063 10.9913C4.22598 11.0415 5.07587 11.065 5.99863 11.0627ZM5.97629 8.93005C4.36093 8.93005 3.0466 7.61581 3.0466 6.00036C3.0466 4.38492 4.36093 3.07068 5.97629 3.07068C7.59174 3.07068 8.90598 4.38492 8.90598 6.00036C8.90598 7.61581 7.59174 8.93005 5.97629 8.93005ZM5.97629 4.00818C4.87784 4.00818 3.9841 4.90191 3.9841 6.00036C3.9841 7.09881 4.87784 7.99255 5.97629 7.99255C7.07483 7.99255 7.96848 7.09881 7.96848 6.00036C7.96848 4.90191 7.07483 4.00818 5.97629 4.00818ZM9.2341 2.13318C8.84583 2.13318 8.53098 2.44793 8.53098 2.8363C8.53098 3.22467 8.84583 3.53943 9.2341 3.53943C9.62247 3.53943 9.93723 3.22467 9.93723 2.8363C9.93723 2.44793 9.62247 2.13318 9.2341 2.13318Z" fill="#6450EF"/>
</g>
<defs>
<clipPath id="clip0_140_140">
<rect width="12" height="12" fill="white"/>
</clipPath>
</defs>
</svg>
