<svg width="74" height="38" viewBox="0 0 74 38" fill="none" xmlns="http://www.w3.org/2000/svg">
<path fill-rule="evenodd" clip-rule="evenodd" d="M53.7577 0.524942C53.4884 0.474089 53.2071 0.495389 52.9584 0.661553C52.4409 1.00731 52.3418 1.57053 52.2274 1.99094C52.03 2.71709 52.1018 3.44255 52.159 4.08887C52.2736 5.38338 52.7132 6.55926 52.908 7.70751C53.0244 8.39416 53.1272 9.08386 53.2188 9.77524C52.8603 10.635 52.49 11.4894 52.1258 12.3214C51.2869 14.2375 50.3231 16.1093 49.3998 18.0135C48.4183 20.0375 47.5198 22.0852 46.4514 24.0201C45.6994 25.3822 45.2615 26.2639 44.4836 27.2554C44.2461 27.5581 43.8397 27.9902 43.6696 28.0709C43.4995 28.1517 43.3835 28.1616 43.3078 28.1348C43.2505 28.1145 43.1868 28.052 43.1085 27.878C43.0301 27.704 42.9643 27.4576 42.8731 27.2113C42.4976 26.1971 42.3466 25.0716 42.2881 23.9467C42.2587 23.3822 42.3114 22.8033 42.3661 22.2205C42.8534 20.891 43.3576 19.5658 43.8785 18.2446C44.8019 15.9026 45.8653 13.6022 46.8141 11.2363C47.3164 9.98363 47.9699 8.72534 48.3128 7.31738C48.3843 7.02373 48.5135 6.66792 48.5942 6.28019C48.6749 5.89246 48.7086 5.44651 48.5112 5.01747C48.2798 4.51462 47.7986 4.21896 47.2794 4.18249C46.5023 4.12791 45.8923 4.62835 45.448 5.02566C44.7628 5.63837 44.4075 6.47026 44.0658 7.18249C43.545 8.26818 43.1999 9.41926 42.9085 10.5558C42.486 12.204 42.2416 13.885 42.0397 15.5514C41.8732 16.9261 41.8532 18.291 41.7573 19.625C41.7004 20.4157 41.5963 21.2288 41.5164 22.0552C41.2197 22.8681 40.9215 23.6805 40.6495 24.5039C40.5595 24.7763 40.4952 25.0488 40.4109 25.3222C40.2151 24.7657 39.9708 24.2543 39.8133 23.7907C39.6364 23.2704 39.436 22.8048 39.3626 22.3602C39.2901 21.9214 39.3257 20.7518 39.3257 20.7518C39.3457 20.286 38.7259 20.121 38.518 20.5369C38.518 20.5369 37.4644 22.6427 36.8102 23.6984C36.6733 23.9193 36.2066 24.527 35.9722 24.823C36.0434 24.4155 36.4272 23.1946 36.4717 22.879C36.6068 21.9215 36.9394 20.9634 36.6757 20.5898C36.515 20.3622 36.0803 20.1276 35.8501 20.5297C35.8501 20.5297 34.9505 22.1001 34.5107 22.907C34.1555 23.5589 33.9109 24.0405 33.4789 24.8659C33.8093 22.991 34.3742 21.1261 34.703 19.1735C34.8343 18.3933 35.3232 17.4104 35.0121 16.3556C34.963 16.1891 34.8887 16.0021 34.7596 15.8233C34.6306 15.6445 34.4166 15.4464 34.1082 15.4293C34.0632 15.4268 34.0252 15.4416 33.9819 15.4438C34.1425 14.8085 34.3138 14.176 34.4412 13.5325C34.5966 12.7475 34.9617 11.8191 34.7472 10.8208C34.6185 10.2215 34.3154 9.6642 33.683 9.29526C33.1175 8.96538 32.506 9.11479 32.0645 9.21562C31.0963 9.43671 30.2949 9.8461 29.5536 10.3625C28.2699 11.2568 27.0807 12.3271 26.0844 13.5531C25.4893 14.2855 24.9983 15.0849 24.5457 15.9028C24.3021 15.5804 24.0304 15.2792 23.688 15.0426C22.5749 14.2736 21.1821 14.357 20.0455 14.3309C18.6928 14.2998 17.3461 14.5321 16.0657 14.8844C13.9898 15.4556 12.0347 16.3827 10.1572 17.367C7.98676 18.5047 6.16006 19.7312 4.20206 21.2035C2.81441 22.247 0.89349 24.174 0.727807 24.3742C0.242392 24.9607 0.579073 25.5486 1.11692 25.0514C1.30736 24.8753 3.18504 22.9776 4.46717 22.0136C6.39294 20.5655 8.42494 19.2507 10.5491 18.1371C12.4059 17.1637 14.3082 16.2661 16.289 15.7211C17.5146 15.3838 18.783 15.1691 20.0261 15.1976C21.2016 15.2246 22.4084 15.2075 23.207 15.7593C23.5604 16.0035 23.8462 16.3647 24.0945 16.7717C23.9503 17.057 23.7884 17.3372 23.6523 17.6234C22.9999 18.996 22.48 20.4378 22.091 21.9069C21.5355 24.005 21.2061 26.1596 21.0031 28.3078C20.8648 29.7717 20.6907 31.3704 20.9254 32.9936C20.9712 33.3104 21.1107 33.7381 21.2993 34.137C21.3935 34.3364 21.5109 34.5316 21.6843 34.6949C21.8577 34.8582 22.1035 34.9835 22.3751 34.9939C22.6409 35.0041 22.8909 34.8937 23.0648 34.7437C23.2386 34.5937 23.3551 34.4133 23.4526 34.2315C23.6475 33.8679 23.8023 33.4857 23.8878 33.2386C24.507 31.4498 24.9824 29.8013 25.3224 28.1026C25.6933 26.2494 25.9864 24.3527 26.0269 22.4365C26.0555 21.0848 26.127 19.6205 25.6728 18.2294C25.5167 17.7515 25.3057 17.2484 25.0634 16.7641C25.5595 15.8229 26.0908 14.9081 26.7436 14.1047C27.6827 12.949 28.813 11.9298 30.0373 11.0769C30.7639 10.5707 31.4832 10.2368 32.2522 10.0612C32.6641 9.96715 33.0645 9.93429 33.2574 10.0468C33.5489 10.2169 33.8141 10.5482 33.9124 11.0056C34.0551 11.6702 33.7788 12.4782 33.6039 13.3618C33.43 14.2398 33.2119 15.1105 32.9755 15.9766C32.9085 16.0466 32.8222 16.1024 32.7646 16.1749C32.4566 16.5626 32.2155 16.9966 31.9993 17.2666C31.156 18.3196 30.5298 19.5096 29.9399 20.6709C29.114 22.2966 28.3633 23.9845 27.8144 25.7464C27.5455 26.6095 27.2871 27.28 27.2084 28.0327C27.1445 28.6427 27.6684 28.7726 28.0355 28.5657C28.4026 28.3588 28.5576 28.0792 28.8442 27.7003C29.4576 26.8895 29.9641 26.0094 30.4178 25.1207C31.3612 23.2728 32.1421 21.3436 32.8187 19.3901C33.1604 18.4036 33.4733 17.4033 33.7538 16.393C33.849 16.3272 33.9409 16.2961 34.0368 16.2959C34.0322 16.291 34.0378 16.2936 34.0611 16.2949C34.0529 16.2945 34.0449 16.2959 34.0368 16.2959C34.0405 16.3 34.0502 16.3079 34.0702 16.3356C34.1146 16.3972 34.1665 16.5117 34.1938 16.6042C34.3802 17.2361 34.0217 18.0723 33.8608 19.0275C33.5312 20.9853 32.9183 22.9296 32.5832 24.9704C32.4622 25.7078 32.2818 26.6793 32.2506 27.0263C32.2081 27.4989 32.9977 27.8149 33.2149 27.3947C33.3744 27.0861 34.5391 24.6465 35.2586 23.3263C35.3586 23.1428 35.4353 23.0144 35.5695 22.7748C35.5343 23.0863 35.4884 23.3407 35.4309 23.6204C35.2918 24.2979 34.9415 25.1863 34.9325 25.6341C34.92 26.2595 35.5873 26.7943 36.1134 26.242C36.4201 25.9199 37.0013 25.0181 37.5332 24.1597C37.928 23.5226 38.1474 23.0515 38.5113 22.3504C38.5172 22.399 38.5127 22.4584 38.5202 22.5037C38.6176 23.0939 38.8458 23.6019 39.0061 24.0735C39.2795 24.8779 39.6972 25.5334 39.7885 26.1719C39.8377 26.516 39.8534 26.8666 39.8583 27.219C39.5652 28.2645 39.2583 29.3152 38.9474 30.3433C38.5615 31.6192 38.0271 32.8947 37.7165 34.2749C37.498 35.246 37.2244 36.0846 37.3237 37.0725C37.3518 37.352 37.8256 37.7044 38.1075 37.3507C38.3015 37.1074 38.8771 36.1634 39.1839 35.397C39.7255 34.0441 40.0559 32.618 40.2883 31.2027C40.4939 29.9508 40.7278 28.6414 40.7207 27.3158C40.959 26.469 41.1864 25.6071 41.4598 24.7795C41.4736 24.7377 41.49 24.6966 41.5039 24.6548C41.5871 25.6171 41.7307 26.5895 42.0737 27.5159C42.1412 27.6985 42.2095 27.9669 42.3317 28.2381C42.4539 28.5094 42.6578 28.8226 43.0267 28.9531C43.3911 29.082 43.7483 28.9905 44.0318 28.8559C44.3153 28.7213 44.7368 28.2769 45.0253 27.9257C45.892 26.8707 46.5056 25.6955 47.1967 24.4439C48.2907 22.4625 49.1947 20.4001 50.1664 18.3962C51.0835 16.5047 52.0474 14.5276 52.8778 12.5435C53.0571 12.1152 53.2287 11.6879 53.3961 11.2593C53.4225 11.5021 53.4494 11.745 53.4731 11.9882C53.5535 12.8117 53.5957 13.6103 53.6589 14.4737C53.6893 14.8894 53.7109 15.3433 53.7543 15.7501C52.828 16.8431 51.8817 17.9149 50.9817 19.0727C50.3873 19.8374 49.9978 20.3755 49.2742 21.4339C49.083 21.7137 49.0566 22.0357 49.0907 22.3169C49.1248 22.5981 49.2884 22.9238 49.4875 23.1613C49.7447 23.4682 50.0579 23.7147 50.4665 23.8499C51.0798 24.0528 51.7812 24.1521 52.4139 23.9373C53.0303 23.7281 53.4498 23.2737 53.81 22.7774C54.2512 22.1696 54.3302 21.4757 54.4608 20.8484C54.6519 19.9303 54.7074 19.0205 54.6979 18.1453C54.6902 17.433 54.7147 16.7175 54.6415 16.0312C54.9444 15.6685 55.2574 15.3194 55.5474 14.9415C55.6312 14.8322 55.7576 14.6423 55.8466 14.5243C55.7179 14.8403 55.5647 15.1424 55.4645 15.4733C55.2326 16.2389 55.0808 17.0546 55.0912 17.8798C55.0956 18.231 55.0321 18.7643 55.3755 19.2351C55.6042 19.5486 55.8074 19.8639 56.3029 19.7964C56.7053 19.7416 57.054 19.4361 57.2474 19.2026C57.4408 18.9691 57.6744 18.7525 57.8006 18.6234C58.2058 18.209 58.8232 17.4517 59.214 16.9878C59.1947 17.1583 59.0909 17.5728 59.1186 17.8658C59.1365 18.0557 59.1566 18.2327 59.2858 18.4123C59.4149 18.5919 59.6091 18.7721 59.8883 18.8254C60.2481 18.8941 60.552 18.7288 60.7614 18.5719C60.9708 18.4149 61.1341 18.2438 61.2528 18.1502C61.8899 17.6481 62.4018 17.0356 62.88 16.4436C63.1819 16.0699 63.4154 15.6829 63.6323 15.343C63.7557 15.5012 63.8906 15.6838 63.9225 15.7564C64.0743 16.1013 64.0826 16.5824 64.16 17.1242C64.2114 17.4838 64.2265 17.8302 64.2707 18.1847C64.0925 18.4097 63.9087 18.6351 63.739 18.8555C63.2148 19.5364 62.7317 20.2583 62.3173 21.0212C61.7836 22.0037 61.2416 23.0367 60.9336 24.175C60.6726 25.1392 60.2705 26.2836 60.5853 27.4357C60.7479 28.0307 61.1188 28.6494 61.7502 28.9353C62.2427 29.1584 62.7712 29.0627 63.1882 28.844C63.8006 28.5227 64.1276 27.9237 64.372 27.4272C64.7668 26.625 64.8448 25.7599 64.9583 24.9922C65.2178 23.2358 65.3211 21.4517 65.2834 19.679C65.2745 19.2592 65.2015 18.8624 65.1566 18.4528C65.4891 18.0526 65.9986 17.6143 66.3826 17.3102C67.3494 16.5445 68.3008 16.0022 69.4651 15.5988C70.2994 15.3098 71.1413 15.0405 71.8599 15.1752C72.0519 15.2112 72.2658 15.2691 72.4166 15.344C72.9683 15.5967 72.3778 16.2793 72.2057 16.4801C71.8755 16.8465 71.5044 17.1038 71.0785 17.4349C70.455 17.9197 69.8996 18.3085 69.2391 18.6113C68.7418 18.8393 68.4769 19.0017 67.6684 19.08C67.064 19.1385 66.9989 19.6738 67.6701 19.7037C68.4865 19.7401 68.7048 19.6992 69.5966 19.3583C70.4333 19.0384 71.1236 18.5759 71.6632 18.1513C72.0854 17.8231 72.5831 17.4834 72.9285 17.0385C73.1167 16.796 73.2583 16.5108 73.3478 16.2159C73.4392 15.9148 73.5815 15.6591 73.4593 15.2778C73.3437 14.9169 73.0596 14.6981 72.792 14.5653C72.5243 14.4324 72.2472 14.3665 72.0155 14.3231C70.9994 14.1325 70.0243 14.4893 69.1891 14.7787C67.9364 15.2127 66.9039 15.798 65.8573 16.6269C65.6141 16.8196 65.2504 17.1102 65.0399 17.3287C65.0245 17.2213 65.0209 17.1067 65.0057 17C64.941 16.5472 64.9545 15.9759 64.7025 15.4032C64.5819 15.1289 64.3898 14.8948 64.2203 14.692C64.0507 14.4891 63.9016 14.3337 63.9016 14.3337C63.7092 14.1335 63.383 14.1679 63.2352 14.404C63.2352 14.404 62.5639 15.468 62.2195 15.8943C61.7489 16.4769 61.2737 17.036 60.7288 17.4656C60.5375 17.6164 60.3822 17.7781 60.2539 17.8742C60.1255 17.9704 60.0723 17.9786 60.0463 17.9736C60.0554 17.9753 60.0227 17.966 59.976 17.9011C59.9294 17.8362 59.8833 17.7298 59.8632 17.6465C59.8098 17.4244 59.987 17.0403 60.1307 16.5252C60.3462 15.7531 60.9923 14.1291 60.9923 14.1291C61.1959 13.6204 60.4733 13.2778 60.2193 13.7625C60.2193 13.7625 59.271 15.5598 58.7323 16.2977C58.2932 16.8992 57.7474 17.4468 57.194 18.0127C56.9718 18.24 56.7973 18.412 56.6552 18.5835C56.4138 18.8414 56.2776 18.8638 56.0621 18.7194C55.9671 18.5892 55.9502 18.2649 55.9453 17.8685C55.9364 17.1593 56.0685 16.429 56.281 15.7278C56.6503 14.5086 57.208 13.3375 57.8459 12.1614C58.2031 11.5027 58.7445 10.6325 59.2982 9.77485C59.8369 9.53543 60.3935 9.31252 60.9511 9.07593C61.9546 8.65016 62.8987 8.29029 63.9329 7.94634C65.0197 7.58488 66.1126 7.22355 67.2086 6.88158C67.6575 6.74151 67.6226 6.21613 67.1551 6.21819C67.1025 6.213 67.0494 6.21774 66.9985 6.23222C66.9985 6.23222 64.8688 6.76715 63.7183 7.14981C62.6632 7.50071 61.6466 7.84127 60.6217 8.27614C60.4682 8.34124 60.3113 8.4057 60.1556 8.47018C60.8649 7.4076 61.4515 6.5613 61.4564 6.55397L61.462 6.54557C61.7618 6.07277 61.0819 5.60097 60.7569 6.05621C60.7569 6.05621 59.413 7.76276 58.7611 8.75562C58.6764 8.88455 58.5903 9.0302 58.5007 9.18741C58.0713 9.39209 57.6469 9.6176 57.2372 9.8803C56.7893 10.1674 56.3585 10.5108 55.9925 10.9259C55.5854 11.3877 55.2027 12.0945 55.2027 12.0945C54.9195 12.6021 55.7202 12.9782 55.9943 12.4655C55.9943 12.4655 56.3924 11.7728 56.6292 11.5042C56.9246 11.1692 57.2869 10.8764 57.6766 10.6248C57.1142 11.5526 56.2876 12.7687 54.8731 14.4091C54.7559 14.545 54.6347 14.6886 54.5223 14.8293C54.5113 14.7067 54.4945 14.5805 54.4856 14.4585C54.4246 13.6262 54.3425 12.7433 54.2577 11.8747C54.1863 11.1433 54.0941 10.4152 53.9889 9.68882C54.2907 8.86771 54.5859 8.03764 54.8888 7.18369C55.2126 6.27074 55.4502 5.52519 55.6527 4.51666C55.7632 3.96579 55.7348 3.40628 55.7215 3.01973C55.7089 2.65316 55.3667 2.64638 55.3405 3.01487C55.3043 3.52423 55.2535 3.77509 55.1782 4.15151C54.9956 5.06124 54.6945 5.90564 54.365 6.83462C54.1836 7.34596 53.9878 7.86114 53.7852 8.37684C53.7401 8.09933 53.6948 7.82177 53.6477 7.5442C53.4343 6.28617 53.1105 5.14885 53.0098 4.01147C52.9527 3.36664 52.9086 2.74511 53.051 2.22163C53.1568 1.83252 53.2829 1.5565 53.4566 1.44045C53.5886 1.35225 53.8809 1.29674 54.0276 1.33477C54.2147 1.38326 54.3458 1.47172 54.4899 1.65389C54.6685 1.87965 54.7556 1.98982 54.8865 2.15933C55.104 2.4408 55.404 2.30413 55.2888 2.01235C55.1852 1.74987 55.1405 1.57717 54.9655 1.33109C54.7025 0.961331 54.4743 0.797022 54.2197 0.678481C54.0764 0.611733 53.9193 0.555453 53.7577 0.524942ZM47.2203 5.04723C47.3978 5.05971 47.6727 5.24506 47.7368 5.38435C47.8208 5.56705 47.8215 5.79929 47.7587 6.10097C47.6959 6.40266 47.5713 6.74745 47.4832 7.10924C47.1734 8.38171 46.546 9.60512 46.0228 10.9099C45.0852 13.2479 44.1606 15.3242 43.2249 17.6974C43.0788 18.0679 42.6388 19.2439 42.4939 19.6154C42.5602 18.4734 42.7541 16.7591 42.8876 15.6572C43.0878 14.0049 43.3284 12.3621 43.7355 10.7743C44.0207 9.66161 44.3523 8.5659 44.8339 7.56197C45.1832 6.83379 45.5139 6.12263 46.0131 5.67619C46.4108 5.32055 46.8778 5.02317 47.2203 5.04723ZM53.8554 16.9771C53.8885 17.3641 53.9301 17.7529 53.9342 18.1338C53.9437 19.0083 53.9484 19.8654 53.7832 20.6593C53.6553 21.2735 53.507 21.8631 53.2066 22.2769C52.9325 22.6546 52.4673 23.0563 52.0693 23.1914C51.644 23.3357 51.2234 23.3144 50.7843 23.1927C50.4936 23.1122 50.2984 23.0261 50.1036 22.8655C49.9656 22.7516 49.8059 22.6125 49.7815 22.4337C49.7569 22.2544 49.9464 21.9712 49.9762 21.9277C50.6953 20.8758 51.0661 20.3638 51.6524 19.6094C52.3479 18.7147 53.1009 17.8502 53.8554 16.9771ZM64.3988 19.4091C64.4034 19.5041 64.427 19.6034 64.4291 19.6981C64.4658 21.4241 64.3654 23.1588 64.1135 24.8634C63.9959 25.6591 63.9089 26.4277 63.6075 27.0399C63.3853 27.4915 63.1111 27.9083 62.7957 28.0737C62.5787 28.1876 62.2578 28.2156 62.0985 28.1435C61.8059 28.0109 61.5164 27.5985 61.4086 27.204C61.1879 26.3962 61.4875 25.4013 61.7574 24.4042C62.0322 23.3888 62.5369 22.4132 63.0657 21.4397C63.4509 20.7306 63.9041 20.0534 64.3988 19.4091ZM32.2059 18.489C32.138 18.6924 32.0829 18.8998 32.0127 19.1025C31.3459 21.0275 30.5797 22.9197 29.6595 24.7222C29.3073 25.4122 28.8227 26.3148 28.3929 26.9422C28.4586 26.6374 28.5273 26.312 28.6289 26.0074C29.1945 24.3128 29.8869 22.6666 30.6989 21.068C31.1575 20.1653 31.6518 19.2978 32.2059 18.489ZM24.5488 17.7556C24.6513 18.0079 24.7781 18.2449 24.8619 18.5018C25.2499 19.6899 25.2015 21.0531 25.1726 22.4179C25.1338 24.2565 24.8511 26.1027 24.4854 27.93C24.1419 29.6464 23.7097 31.2043 23.1217 32.8555C22.9986 33.2014 22.8408 33.5593 22.7025 33.8172C22.6333 33.9461 22.5616 34.0399 22.5113 34.0833C22.4611 34.1266 22.4513 34.129 22.407 34.1273C22.3513 34.1251 22.3236 34.1141 22.2655 34.0595C22.2075 34.0048 22.135 33.9004 22.0696 33.7621C21.9389 33.4856 21.7991 33.1011 21.748 32.7603C21.5489 31.433 21.708 29.9321 21.8537 28.3905C22.0534 26.2761 22.3766 24.1687 22.9161 22.1314C23.2918 20.7122 23.7939 19.3213 24.4218 18.0001C24.4614 17.9168 24.5087 17.8386 24.5488 17.7556Z" fill="#13161D"/>
</svg>
