<svg width="12" height="12" viewBox="0 0 12 12" fill="none" xmlns="http://www.w3.org/2000/svg">
<g clip-path="url(#clip0_140_142)">
<path d="M10.767 3.55649C11.255 3.20999 11.6655 2.77749 12 2.27949V2.27899C11.5535 2.47449 11.0785 2.60449 10.5825 2.66749C11.0925 2.36299 11.482 1.88449 11.665 1.30799C11.1895 1.59149 10.6645 1.79149 10.105 1.90349C9.6535 1.42249 9.01 1.12499 8.308 1.12499C6.946 1.12499 5.8495 2.23049 5.8495 3.58549C5.8495 3.78049 5.866 3.96799 5.9065 4.14649C3.8615 4.04649 2.0515 3.06649 0.8355 1.57299C0.6235 1.94149 0.4985 2.36299 0.4985 2.81649C0.4985 3.66849 0.937 4.42349 1.5915 4.86099C1.196 4.85349 0.8085 4.73849 0.48 4.55799V4.58499C0.48 5.78049 1.3325 6.77349 2.451 7.00249C2.2505 7.05749 2.0325 7.08349 1.806 7.08349C1.6485 7.08349 1.4895 7.07449 1.3405 7.04149C1.659 8.01549 2.564 8.73199 3.639 8.75549C2.802 9.40999 1.739 9.80449 0.5885 9.80449C0.387 9.80449 0.1935 9.79549 0 9.77099C1.09 10.4735 2.381 10.875 3.774 10.875C8.1155 10.875 10.945 7.25299 10.767 3.55649Z" fill="#6450EF"/>
</g>
<defs>
<clipPath id="clip0_140_142">
<rect width="12" height="12" fill="white"/>
</clipPath>
</defs>
</svg>
